
<svg xmlns="http://www.w3.org/2000/svg" width="90" height="87" viewBox="0 0 90 87">
  <defs>
    <mask id="logoMask">
      <rect width="90" height="87" fill="white"/>
      <g transform="translate(0,87) scale(0.1,-0.1)" fill="black">
        <path d="M0 435 l0 -435 450 0 450 0 0 435 0 435 -450 0 -450 0 0 -435z m655
        231 c66 -66 74 -151 20 -222 -50 -65 -61 -68 -281 -65 l-111 1 -42 38 c-79 72
        -79 185 0 257 l39 35 165 0 166 0 44 -44z m53 -455 c2 -67 -1 -108 -9 -117 -9
        -11 -57 -14 -243 -14 -127 0 -241 3 -253 6 -22 6 -23 11 -23 113 0 59 3 111 7
        114 4 4 122 6 262 5 l256 -3 3 -104z"/>
        <path d="M320 545 c0 -22 4 -26 23 -23 14 2 22 10 22 23 0 13 -8 21 -22 23
        -19 3 -23 -1 -23 -23z"/>
        <path d="M524 555 c-4 -9 -2 -21 4 -27 15 -15 44 -1 40 19 -4 23 -36 29 -44 8z"/>
      </g>
    </mask>
  </defs>
  <rect width="90" height="87" fill="#c6c6c6" mask="url(#logoMask)"/>
</svg>
