 <svg version="1.0" xmlns="http://www.w3.org/2000/svg"  width="96.000000pt" height="96.000000pt" viewBox="0 0 96.000000 96.000000"  preserveAspectRatio="xMidYMid meet">  

  
  <g transform="translate(0.000000,96.000000) scale(0.100000,-0.100000)" fill="#c6c6c6" stroke="none"> <path d="M598 841 c29 -10 58 -23 65 -30 6 -6 16 -11 23 -11 15 0 114 -99 114 -114 0 -7 5 -17 11 -23 23 -23 49 -118 49 -178 0 -60 -26 -155 -49 -178 -6 -6 -11 -16 -11 -21 0 -14 -102 -116 -116 -116 -6 0 -17 -7 -24 -15 -7 -8 -20 -15 -30 -15 -10 0 -31 -7 -46 -15 -38 -20 -160 -20 -198 0 -15 8 -36 15 -46 15 -10 0 -23 7 -30 15 -7 8 -17 15 -23 15 -15 0 -117 101 -117 116 0 6 -7 17 -15 24 -8 7 -15 20 -15 30 0 10 -7 31 -15 46 -30 58 -9 234 34 277 6 6 11 16 11 23 0 15 100 114 115 114 7 0 18 7 25 15 7 8 20 15 30 15 10 0 31 7 46 15 41 21 148 19 212 -4z"/> <path d="M396 677 c-60 -57 -60 -117 0 -174 41 -38 84 -43 132 -16 82 47 82 159 0 206 -48 27 -91 22 -132 -16z" fill="#343434"/> <path d="M380 412 c-60 -17 -120 -87 -120 -140 0 -39 20 -43 221 -40 l194 3 3 30 c3 36 -32 100 -69 128 -21 15 -47 20 -115 23 -49 1 -100 0 -114 -4z" fill="#343434"/> </g> </svg> 