<svg version="1.0" xmlns="http://www.w3.org/2000/svg"  width="81.000000pt" height="84.000000pt" viewBox="0 0 81.000000 84.000000"  preserveAspectRatio="xMidYMid meet">  <g transform="translate(0.000000,84.000000) scale(0.100000,-0.100000)" fill="#ffffff" stroke="none"> <path d="M165 672 c6 -5 55 -28 110 -52 110 -47 147 -63 250 -110 39 -17 97 -43 130 -57 33 -14 66 -30 73 -35 19 -16 14 -36 -10 -44 -13 -4 -52 -20 -88 -36 -36 -16 -74 -33 -85 -38 -11 -5 -51 -23 -88 -39 -38 -17 -70 -31 -72 -31 -3 0 -40 -16 -82 -36 -128 -59 -137 -62 -165 -69 -24 -6 -28 -4 -28 15 0 11 6 42 14 68 8 26 22 75 32 110 l17 62 108 0 c108 0 139 5 139 21 0 5 -48 9 -106 9 -58 0 -114 4 -124 10 -10 5 -25 35 -35 67 -9 32 -23 79 -31 105 -21 68 -19 88 9 88 13 0 27 -4 32 -8z"/> </g> </svg>